{
  "accessors": [
    {
      "bufferView": 2,
      "componentType": 5126,
      "count": 1630,
      "max": [
        1.0603241920471191,
        24.49361801147461,
        1.5659677982330322
      ],
      "min": [
        -1.0603235960006714,
        14.730508804321289,
        -1.5659666061401367
      ],
      "type": "VEC3"
    },
    {
      "bufferView": 2,
      "byteOffset": 19560,
      "componentType": 5126,
      "count": 1630,
      "max": [
        1.0,
        1.0,
        1.0
      ],
      "min": [
        -1.0,
        -1.0,
        -1.0
      ],
      "type": "VEC3"
    },
    {
      "bufferView": 3,
      "componentType": 5126,
      "count": 1630,
      "max": [
        0.999997615814209,
        0.1344721019268036,
        0.9999784231185913,
        1.0
      ],
      "min": [
        -1.0,
        -0.14780278503894806,
        -1.0,
        1.0
      ],
      "type": "VEC4"
    },
    {
      "bufferView": 1,
      "componentType": 5126,
      "count": 1630,
      "max": [
        0.9449039101600647,
        0.6577130556106567
      ],
      "min": [
        0.4824279248714447,
        0.22154033184051514
      ],
      "type": "VEC2"
    },
    {
      "bufferView": 0,
      "componentType": 5125,
      "count": 8832,
      "type": "SCALAR"
    },
    {
      "bufferView": 2,
      "byteOffset": 39120,
      "componentType": 5126,
      "count": 208,
      "max": [
        0.2811056077480316,
        87.48812866210938,
        2.145832061767578
      ],
      "min": [
        -0.2811056077480316,
        25.450443267822266,
        -2.145832061767578
      ],
      "type": "VEC3"
    },
    {
      "bufferView": 2,
      "byteOffset": 41616,
      "componentType": 5126,
      "count": 208,
      "max": [
        1.0,
        0.3620379865169525,
        0.9998843669891357
      ],
      "min": [
        -1.0,
        -1.0,
        -0.999884307384491
      ],
      "type": "VEC3"
    },
    {
      "bufferView": 3,
      "byteOffset": 26080,
      "componentType": 5126,
      "count": 208,
      "max": [
        0.9998200535774231,
        0.686263918876648,
        1.0,
        1.0
      ],
      "min": [
        -0.9999257922172546,
        -0.7094144821166992,
        -0.9999990463256836,
        1.0
      ],
      "type": "VEC4"
    },
    {
      "bufferView": 1,
      "byteOffset": 13040,
      "componentType": 5126,
      "count": 208,
      "max": [
        0.20855125784873962,
        0.9954085946083069
      ],
      "min": [
        0.013709798455238342,
        0.00823616236448288
      ],
      "type": "VEC2"
    },
    {
      "bufferView": 0,
      "byteOffset": 35328,
      "componentType": 5125,
      "count": 624,
      "type": "SCALAR"
    },
    {
      "bufferView": 2,
      "byteOffset": 44112,
      "componentType": 5126,
      "count": 304,
      "max": [
        1.1847645044326782,
        28.39555549621582,
        10.346780776977539
      ],
      "min": [
        -1.1847645044326782,
        23.45426368713379,
        -10.346780776977539
      ],
      "type": "VEC3"
    },
    {
      "bufferView": 2,
      "byteOffset": 47760,
      "componentType": 5126,
      "count": 304,
      "max": [
        1.0,
        1.0,
        0.9989963173866272
      ],
      "min": [
        -1.0,
        -1.0,
        -0.9989964365959167
      ],
      "type": "VEC3"
    },
    {
      "bufferView": 3,
      "byteOffset": 29408,
      "componentType": 5126,
      "count": 304,
      "max": [
        1.0,
        0.00708681670948863,
        0.9999963641166687,
        1.0
      ],
      "min": [
        -0.42494478821754456,
        -0.007083139847964048,
        -0.9999912977218628,
        1.0
      ],
      "type": "VEC4"
    },
    {
      "bufferView": 1,
      "byteOffset": 14704,
      "componentType": 5126,
      "count": 304,
      "max": [
        0.8579481244087219,
        0.99607914686203
      ],
      "min": [
        0.21178944408893585,
        0.005865752696990967
      ],
      "type": "VEC2"
    },
    {
      "bufferView": 0,
      "byteOffset": 37824,
      "componentType": 5125,
      "count": 876,
      "type": "SCALAR"
    },
    {
      "bufferView": 2,
      "byteOffset": 51408,
      "componentType": 5126,
      "count": 545,
      "max": [
        1.0713074207305908,
        14.762787818908691,
        1.9793649911880493
      ],
      "min": [
        -1.0713069438934326,
        0.703689455986023,
        -1.9793641567230225
      ],
      "type": "VEC3"
    },
    {
      "bufferView": 2,
      "byteOffset": 57948,
      "componentType": 5126,
      "count": 545,
      "max": [
        0.9999083280563354,
        1.0,
        0.9999907612800598
      ],
      "min": [
        -0.9999083280563354,
        -1.0,
        -0.9999908208847046
      ],
      "type": "VEC3"
    },
    {
      "bufferView": 3,
      "byteOffset": 34272,
      "componentType": 5126,
      "count": 545,
      "max": [
        0.9999014735221863,
        0.5341688990592957,
        0.9999845623970032,
        1.0
      ],
      "min": [
        -0.9999603629112244,
        -0.49457934498786926,
        -0.9999998807907104,
        1.0
      ],
      "type": "VEC4"
    },
    {
      "bufferView": 1,
      "byteOffset": 17136,
      "componentType": 5126,
      "count": 545,
      "max": [
        0.6514962315559387,
        0.9897773265838623
      ],
      "min": [
        0.20535705983638763,
        0.5374850034713745
      ],
      "type": "VEC2"
    },
    {
      "bufferView": 0,
      "byteOffset": 41328,
      "componentType": 5125,
      "count": 2688,
      "type": "SCALAR"
    }
  ],
  "asset": {
    "extras": {
      "author": "Bl4ckGh0st (https://sketchfab.com/Bl4ckGh0st)",
      "license": "CC-BY-4.0 (http://creativecommons.org/licenses/by/4.0/)",
      "source": "https://sketchfab.com/3d-models/molten-medieval-greatsword-859d8be0c3224bc2aaed724fff711d46",
      "title": "Molten Medieval Greatsword"
    },
    "generator": "Sketchfab-15.30.0",
    "version": "2.0"
  },
  "bufferViews": [
    {
      "buffer": 0,
      "byteLength": 52080,
      "name": "floatBufferViews",
      "target": 34963
    },
    {
      "buffer": 0,
      "byteLength": 21496,
      "byteOffset": 52080,
      "byteStride": 8,
      "name": "floatBufferViews",
      "target": 34962
    },
    {
      "buffer": 0,
      "byteLength": 64488,
      "byteOffset": 73576,
      "byteStride": 12,
      "name": "floatBufferViews",
      "target": 34962
    },
    {
      "buffer": 0,
      "byteLength": 42992,
      "byteOffset": 138064,
      "byteStride": 16,
      "name": "floatBufferViews",
      "target": 34962
    }
  ],
  "buffers": [
    {
      "byteLength": 181056,
      "uri": "scene.bin"
    }
  ],
  "extensionsUsed": [
    "KHR_materials_specular"
  ],
  "images": [
    {
      "uri": "textures/Leather_baseColor.png"
    },
    {
      "uri": "textures/Leather_metallicRoughness.png"
    },
    {
      "uri": "textures/Leather_normal.png"
    },
    {
      "uri": "textures/Leather_specularf0.png"
    },
    {
      "uri": "textures/Silver_baseColor.png"
    },
    {
      "uri": "textures/Silver_metallicRoughness.png"
    },
    {
      "uri": "textures/Silver_emissive.png"
    },
    {
      "uri": "textures/Silver_normal.png"
    },
    {
      "uri": "textures/Silver_specularf0.png"
    },
    {
      "uri": "textures/Silver2_baseColor.png"
    },
    {
      "uri": "textures/Silver2_metallicRoughness.png"
    },
    {
      "uri": "textures/Silver2_emissive.png"
    },
    {
      "uri": "textures/Silver2_normal.png"
    },
    {
      "uri": "textures/Silver2_specularf0.png"
    }
  ],
  "materials": [
    {
      "doubleSided": true,
      "extensions": {
        "KHR_materials_specular": {
          "specularColorFactor": [
            1.0,
            1.0,
            1.0
          ],
          "specularFactor": 1.0,
          "specularTexture": {
            "index": 3
          }
        }
      },
      "name": "Leather",
      "normalTexture": {
        "index": 2
      },
      "pbrMetallicRoughness": {
        "baseColorTexture": {
          "index": 0
        },
        "metallicRoughnessTexture": {
          "index": 1
        }
      }
    },
    {
      "doubleSided": true,
      "emissiveFactor": [
        0.9600029257232022,
        0.9600029257232022,
        0.9600029257232022
      ],
      "emissiveTexture": {
        "index": 6
      },
      "extensions": {
        "KHR_materials_specular": {
          "specularColorFactor": [
            1.0,
            1.0,
            1.0
          ],
          "specularFactor": 1.0,
          "specularTexture": {
            "index": 8
          }
        }
      },
      "name": "Silver",
      "normalTexture": {
        "index": 7
      },
      "pbrMetallicRoughness": {
        "baseColorTexture": {
          "index": 4
        },
        "metallicRoughnessTexture": {
          "index": 5
        },
        "roughnessFactor": 0.26666747936755614
      }
    },
    {
      "doubleSided": true,
      "emissiveFactor": [
        0.8990503590106179,
        0.8990503590106179,
        0.8990503590106179
      ],
      "emissiveTexture": {
        "index": 11
      },
      "extensions": {
        "KHR_materials_specular": {
          "specularColorFactor": [
            1.0,
            1.0,
            1.0
          ],
          "specularFactor": 1.0,
          "specularTexture": {
            "index": 13
          }
        }
      },
      "name": "Silver2",
      "normalTexture": {
        "index": 12
      },
      "pbrMetallicRoughness": {
        "baseColorTexture": {
          "index": 9
        },
        "metallicRoughnessTexture": {
          "index": 10
        },
        "roughnessFactor": 0.35809632943643255
      }
    }
  ],
  "meshes": [
    {
      "name": "pCylinder1_Leather_0",
      "primitives": [
        {
          "attributes": {
            "NORMAL": 1,
            "POSITION": 0,
            "TANGENT": 2,
            "TEXCOORD_0": 3
          },
          "indices": 4,
          "material": 0,
          "mode": 4
        }
      ]
    },
    {
      "name": "pCube4_Silver_0",
      "primitives": [
        {
          "attributes": {
            "NORMAL": 6,
            "POSITION": 5,
            "TANGENT": 7,
            "TEXCOORD_0": 8
          },
          "indices": 9,
          "material": 1,
          "mode": 4
        }
      ]
    },
    {
      "name": "pCube5_Silver2_0",
      "primitives": [
        {
          "attributes": {
            "NORMAL": 11,
            "POSITION": 10,
            "TANGENT": 12,
            "TEXCOORD_0": 13
          },
          "indices": 14,
          "material": 2,
          "mode": 4
        }
      ]
    },
    {
      "name": "pCylinder2_Silver_0",
      "primitives": [
        {
          "attributes": {
            "NORMAL": 16,
            "POSITION": 15,
            "TANGENT": 17,
            "TEXCOORD_0": 18
          },
          "indices": 19,
          "material": 1,
          "mode": 4
        }
      ]
    }
  ],
  "nodes": [
    {
      "children": [
        1
      ],
      "matrix": [
        1.0,
        0.0,
        0.0,
        0.0,
        0.0,
        2.220446049250313e-16,
        -1.0,
        0.0,
        0.0,
        1.0,
        2.220446049250313e-16,
        0.0,
        0.0,
        0.0,
        0.0,
        1.0
      ],
      "name": "Sketchfab_model"
    },
    {
      "children": [
        2
      ],
      "matrix": [
        0.009999999776482582,
        0.0,
        0.0,
        0.0,
        0.0,
        0.0,
        0.009999999776482582,
        0.0,
        0.0,
        -0.009999999776482582,
        0.0,
        0.0,
        0.0,
        0.0,
        0.0,
        1.0
      ],
      "name": "778fa6ad40054bafafcefc1da31e449c.fbx"
    },
    {
      "children": [
        3
      ],
      "name": "RootNode"
    },
    {
      "children": [
        4,
        5,
        7,
        9
      ],
      "matrix": [
        4.440892098500626e-16,
        0.0,
        1.0,
        0.0,
        0.0,
        1.0,
        0.0,
        0.0,
        -1.0,
        0.0,
        4.440892098500626e-16,
        0.0,
        8.940696716308594e-07,
        0.0,
        2.980232238769531e-07,
        1.0
      ],
      "name": "pCylinder1"
    },
    {
      "mesh": 0,
      "name": "pCylinder1_Leather_0"
    },
    {
      "children": [
        6
      ],
      "name": "pCube4"
    },
    {
      "mesh": 1,
      "name": "pCube4_Silver_0"
    },
    {
      "children": [
        8
      ],
      "name": "pCube5"
    },
    {
      "mesh": 2,
      "name": "pCube5_Silver2_0"
    },
    {
      "children": [
        10
      ],
      "name": "pCylinder2"
    },
    {
      "mesh": 3,
      "name": "pCylinder2_Silver_0"
    }
  ],
  "samplers": [
    {
      "magFilter": 9729,
      "minFilter": 9987,
      "wrapS": 10497,
      "wrapT": 10497
    }
  ],
  "scene": 0,
  "scenes": [
    {
      "name": "Sketchfab_Scene",
      "nodes": [
        0
      ]
    }
  ],
  "textures": [
    {
      "sampler": 0,
      "source": 0
    },
    {
      "sampler": 0,
      "source": 1
    },
    {
      "sampler": 0,
      "source": 2
    },
    {
      "sampler": 0,
      "source": 3
    },
    {
      "sampler": 0,
      "source": 4
    },
    {
      "sampler": 0,
      "source": 5
    },
    {
      "sampler": 0,
      "source": 6
    },
    {
      "sampler": 0,
      "source": 7
    },
    {
      "sampler": 0,
      "source": 8
    },
    {
      "sampler": 0,
      "source": 9
    },
    {
      "sampler": 0,
      "source": 10
    },
    {
      "sampler": 0,
      "source": 11
    },
    {
      "sampler": 0,
      "source": 12
    },
    {
      "sampler": 0,
      "source": 13
    }
  ]
}
